<svg width="1920" height="1080" viewBox="0 0 1920 1080" fill="none" xmlns="http://www.w3.org/2000/svg">
<rect width="1920" height="1080" fill="white"/>
<path d="M265.6 645C265.6 634.013 268.053 624.2 272.96 615.56C277.973 606.813 284.747 600.04 293.28 595.24C301.92 590.333 311.573 587.88 322.24 587.88C334.72 587.88 345.653 591.08 355.04 597.48C364.427 603.88 370.987 612.733 374.72 624.04H348.96C346.4 618.707 342.773 614.707 338.08 612.04C333.493 609.373 328.16 608.04 322.08 608.04C315.573 608.04 309.76 609.587 304.64 612.68C299.627 615.667 295.68 619.933 292.8 625.48C290.027 631.027 288.64 637.533 288.64 645C288.64 652.36 290.027 658.867 292.8 664.52C295.68 670.067 299.627 674.387 304.64 677.48C309.76 680.467 315.573 681.96 322.08 681.96C328.16 681.96 333.493 680.627 338.08 677.96C342.773 675.187 346.4 671.133 348.96 665.8H374.72C370.987 677.213 364.427 686.12 355.04 692.52C345.76 698.813 334.827 701.96 322.24 701.96C311.573 701.96 301.92 699.56 293.28 694.76C284.747 689.853 277.973 683.08 272.96 674.44C268.053 665.8 265.6 655.987 265.6 645ZM433.213 702.44C424.679 702.44 416.999 700.573 410.173 696.84C403.346 693 397.959 687.613 394.013 680.68C390.173 673.747 388.253 665.747 388.253 656.68C388.253 647.613 390.226 639.613 394.173 632.68C398.226 625.747 403.719 620.413 410.653 616.68C417.586 612.84 425.319 610.92 433.853 610.92C442.386 610.92 450.119 612.84 457.053 616.68C463.986 620.413 469.426 625.747 473.373 632.68C477.426 639.613 479.453 647.613 479.453 656.68C479.453 665.747 477.373 673.747 473.212 680.68C469.159 687.613 463.613 693 456.573 696.84C449.639 700.573 441.853 702.44 433.213 702.44ZM433.213 682.92C437.266 682.92 441.053 681.96 444.573 680.04C448.199 678.013 451.079 675.027 453.213 671.08C455.346 667.133 456.413 662.333 456.413 656.68C456.413 648.253 454.173 641.8 449.693 637.32C445.319 632.733 439.933 630.44 433.533 630.44C427.133 630.44 421.746 632.733 417.373 637.32C413.106 641.8 410.973 648.253 410.973 656.68C410.973 665.107 413.053 671.613 417.213 676.2C421.479 680.68 426.813 682.92 433.213 682.92ZM545.004 611.08C555.564 611.08 564.097 614.44 570.604 621.16C577.11 627.773 580.364 637.053 580.364 649V701H557.964V652.04C557.964 645 556.204 639.613 552.684 635.88C549.164 632.04 544.364 630.12 538.284 630.12C532.097 630.12 527.19 632.04 523.564 635.88C520.044 639.613 518.284 645 518.284 652.04V701H495.884V612.36H518.284V623.4C521.27 619.56 525.057 616.573 529.644 614.44C534.337 612.2 539.457 611.08 545.004 611.08ZM595.905 656.68C595.905 647.507 597.772 639.507 601.505 632.68C605.238 625.747 610.412 620.413 617.025 616.68C623.638 612.84 631.212 610.92 639.745 610.92C650.732 610.92 659.798 613.693 666.945 619.24C674.198 624.68 679.052 632.36 681.505 642.28H657.345C656.065 638.44 653.878 635.453 650.785 633.32C647.798 631.08 644.065 629.96 639.585 629.96C633.185 629.96 628.118 632.307 624.385 637C620.652 641.587 618.785 648.147 618.785 656.68C618.785 665.107 620.652 671.667 624.385 676.36C628.118 680.947 633.185 683.24 639.585 683.24C648.652 683.24 654.572 679.187 657.345 671.08H681.505C679.052 680.68 674.198 688.307 666.945 693.96C659.692 699.613 650.625 702.44 639.745 702.44C631.212 702.44 623.638 700.573 617.025 696.84C610.412 693 605.238 687.667 601.505 680.84C597.772 673.907 595.905 665.853 595.905 656.68ZM720.315 582.6V701H697.915V582.6H720.315ZM826.126 612.36V701H803.566V689.8C800.686 693.64 796.9 696.68 792.206 698.92C787.62 701.053 782.606 702.12 777.166 702.12C770.233 702.12 764.1 700.68 758.766 697.8C753.433 694.813 749.22 690.493 746.126 684.84C743.14 679.08 741.646 672.253 741.646 664.36V612.36H764.046V661.16C764.046 668.2 765.806 673.64 769.326 677.48C772.846 681.213 777.646 683.08 783.726 683.08C789.913 683.08 794.766 681.213 798.286 677.48C801.806 673.64 803.566 668.2 803.566 661.16V612.36H826.126ZM882.148 702.44C874.894 702.44 868.388 701.16 862.628 698.6C856.868 695.933 852.281 692.36 848.868 687.88C845.561 683.4 843.748 678.44 843.428 673H865.988C866.414 676.413 868.068 679.24 870.948 681.48C873.934 683.72 877.614 684.84 881.988 684.84C886.254 684.84 889.561 683.987 891.908 682.28C894.361 680.573 895.588 678.387 895.588 675.72C895.588 672.84 894.094 670.707 891.108 669.32C888.228 667.827 883.588 666.227 877.188 664.52C870.574 662.92 865.134 661.267 860.868 659.56C856.708 657.853 853.081 655.24 849.988 651.72C847.001 648.2 845.508 643.453 845.508 637.48C845.508 632.573 846.894 628.093 849.668 624.04C852.548 619.987 856.601 616.787 861.828 614.44C867.161 612.093 873.401 610.92 880.548 610.92C891.108 610.92 899.534 613.587 905.828 618.92C912.121 624.147 915.588 631.24 916.228 640.2H894.788C894.468 636.68 892.974 633.907 890.308 631.88C887.748 629.747 884.281 628.68 879.908 628.68C875.854 628.68 872.708 629.427 870.468 630.92C868.334 632.413 867.268 634.493 867.268 637.16C867.268 640.147 868.761 642.44 871.748 644.04C874.734 645.533 879.374 647.08 885.668 648.68C892.068 650.28 897.348 651.933 901.508 653.64C905.668 655.347 909.241 658.013 912.228 661.64C915.321 665.16 916.921 669.853 917.028 675.72C917.028 680.84 915.588 685.427 912.708 689.48C909.934 693.533 905.881 696.733 900.548 699.08C895.321 701.32 889.188 702.44 882.148 702.44ZM946.775 601.8C942.828 601.8 939.522 600.573 936.855 598.12C934.295 595.56 933.015 592.413 933.015 588.68C933.015 584.947 934.295 581.853 936.855 579.4C939.522 576.84 942.828 575.56 946.775 575.56C950.722 575.56 953.975 576.84 956.535 579.4C959.202 581.853 960.535 584.947 960.535 588.68C960.535 592.413 959.202 595.56 956.535 598.12C953.975 600.573 950.722 601.8 946.775 601.8ZM957.815 612.36V701H935.415V612.36H957.815ZM1019.31 702.44C1010.77 702.44 1003.09 700.573 996.266 696.84C989.44 693 984.053 687.613 980.106 680.68C976.266 673.747 974.346 665.747 974.346 656.68C974.346 647.613 976.32 639.613 980.266 632.68C984.32 625.747 989.813 620.413 996.746 616.68C1003.68 612.84 1011.41 610.92 1019.95 610.92C1028.48 610.92 1036.21 612.84 1043.15 616.68C1050.08 620.413 1055.52 625.747 1059.47 632.68C1063.52 639.613 1065.55 647.613 1065.55 656.68C1065.55 665.747 1063.47 673.747 1059.31 680.68C1055.25 687.613 1049.71 693 1042.67 696.84C1035.73 700.573 1027.95 702.44 1019.31 702.44ZM1019.31 682.92C1023.36 682.92 1027.15 681.96 1030.67 680.04C1034.29 678.013 1037.17 675.027 1039.31 671.08C1041.44 667.133 1042.51 662.333 1042.51 656.68C1042.51 648.253 1040.27 641.8 1035.79 637.32C1031.41 632.733 1026.03 630.44 1019.63 630.44C1013.23 630.44 1007.84 632.733 1003.47 637.32C999.2 641.8 997.066 648.253 997.066 656.68C997.066 665.107 999.146 671.613 1003.31 676.2C1007.57 680.68 1012.91 682.92 1019.31 682.92ZM1131.1 611.08C1141.66 611.08 1150.19 614.44 1156.7 621.16C1163.2 627.773 1166.46 637.053 1166.46 649V701H1144.06V652.04C1144.06 645 1142.3 639.613 1138.78 635.88C1135.26 632.04 1130.46 630.12 1124.38 630.12C1118.19 630.12 1113.28 632.04 1109.66 635.88C1106.14 639.613 1104.38 645 1104.38 652.04V701H1081.98V612.36H1104.38V623.4C1107.36 619.56 1111.15 616.573 1115.74 614.44C1120.43 612.2 1125.55 611.08 1131.1 611.08Z" fill="#121212"/>
<circle cx="335" cy="410" r="75" fill="#01AAE4"/>
<path d="M305.399 409.3C305.399 403.533 306.432 399.017 308.499 395.75C310.599 392.483 314.066 390.85 318.899 390.85C323.732 390.85 327.182 392.483 329.249 395.75C331.349 399.017 332.399 403.533 332.399 409.3C332.399 415.1 331.349 419.65 329.249 422.95C327.182 426.25 323.732 427.9 318.899 427.9C314.066 427.9 310.599 426.25 308.499 422.95C306.432 419.65 305.399 415.1 305.399 409.3ZM325.499 409.3C325.499 406.833 325.332 404.767 324.999 403.1C324.699 401.4 324.066 400.017 323.099 398.95C322.166 397.883 320.766 397.35 318.899 397.35C317.032 397.35 315.616 397.883 314.649 398.95C313.716 400.017 313.082 401.4 312.749 403.1C312.449 404.767 312.299 406.833 312.299 409.3C312.299 411.833 312.449 413.967 312.749 415.7C313.049 417.4 313.682 418.783 314.649 419.85C315.616 420.883 317.032 421.4 318.899 421.4C320.766 421.4 322.182 420.883 323.149 419.85C324.116 418.783 324.749 417.4 325.049 415.7C325.349 413.967 325.499 411.833 325.499 409.3ZM362.223 397.6H346.023V406.15C346.723 405.283 347.723 404.583 349.023 404.05C350.323 403.483 351.707 403.2 353.173 403.2C355.84 403.2 358.023 403.783 359.723 404.95C361.423 406.117 362.657 407.617 363.423 409.45C364.19 411.25 364.573 413.183 364.573 415.25C364.573 419.083 363.473 422.167 361.273 424.5C359.107 426.833 356.007 428 351.973 428C348.173 428 345.14 427.05 342.873 425.15C340.607 423.25 339.323 420.767 339.023 417.7H345.823C346.123 419.033 346.79 420.1 347.823 420.9C348.89 421.7 350.24 422.1 351.873 422.1C353.84 422.1 355.323 421.483 356.323 420.25C357.323 419.017 357.823 417.383 357.823 415.35C357.823 413.283 357.307 411.717 356.273 410.65C355.273 409.55 353.79 409 351.823 409C350.423 409 349.257 409.35 348.323 410.05C347.39 410.75 346.723 411.683 346.323 412.85H339.623V391.45H362.223V397.6Z" fill="white"/>
</svg>
