<svg width="1920" height="1080" viewBox="0 0 1920 1080" fill="none" xmlns="http://www.w3.org/2000/svg">
<rect width="1920" height="1080" fill="white"/>
<path d="M420.32 589.32L389.12 701H362.72L341.76 621.48L319.84 701L293.6 701.16L263.52 589.32H287.52L307.2 676.04L329.92 589.32H354.88L376.32 675.56L396.16 589.32H420.32ZM474.306 702.44C465.773 702.44 458.093 700.573 451.266 696.84C444.44 693 439.053 687.613 435.106 680.68C431.266 673.747 429.346 665.747 429.346 656.68C429.346 647.613 431.32 639.613 435.266 632.68C439.32 625.747 444.813 620.413 451.746 616.68C458.68 612.84 466.413 610.92 474.946 610.92C483.48 610.92 491.213 612.84 498.146 616.68C505.08 620.413 510.52 625.747 514.466 632.68C518.52 639.613 520.546 647.613 520.546 656.68C520.546 665.747 518.466 673.747 514.306 680.68C510.253 687.613 504.706 693 497.666 696.84C490.733 700.573 482.946 702.44 474.306 702.44ZM474.306 682.92C478.36 682.92 482.146 681.96 485.666 680.04C489.293 678.013 492.173 675.027 494.306 671.08C496.44 667.133 497.506 662.333 497.506 656.68C497.506 648.253 495.266 641.8 490.786 637.32C486.413 632.733 481.026 630.44 474.626 630.44C468.226 630.44 462.84 632.733 458.466 637.32C454.2 641.8 452.066 648.253 452.066 656.68C452.066 665.107 454.146 671.613 458.306 676.2C462.573 680.68 467.906 682.92 474.306 682.92ZM559.378 626.12C562.258 621.427 565.991 617.747 570.578 615.08C575.271 612.413 580.604 611.08 586.578 611.08V634.6H580.658C573.618 634.6 568.284 636.253 564.658 639.56C561.138 642.867 559.378 648.627 559.378 656.84V701H536.978V612.36H559.378V626.12ZM654.145 701L624.065 663.24V701H601.665V582.6H624.065V649.96L653.825 612.36H682.945L643.905 656.84L683.265 701H654.145ZM735.743 630.76H720.223V701H697.503V630.76H687.423V612.36H697.503V607.88C697.503 597 700.596 589 706.783 583.88C712.969 578.76 722.303 576.36 734.783 576.68V595.56C729.343 595.453 725.556 596.36 723.423 598.28C721.289 600.2 720.223 603.667 720.223 608.68V612.36H735.743V630.76ZM772.659 582.6V701H750.259V582.6H772.659ZM834.15 702.44C825.617 702.44 817.937 700.573 811.11 696.84C804.283 693 798.897 687.613 794.95 680.68C791.11 673.747 789.19 665.747 789.19 656.68C789.19 647.613 791.163 639.613 795.11 632.68C799.163 625.747 804.657 620.413 811.59 616.68C818.523 612.84 826.257 610.92 834.79 610.92C843.323 610.92 851.057 612.84 857.99 616.68C864.923 620.413 870.363 625.747 874.31 632.68C878.363 639.613 880.39 647.613 880.39 656.68C880.39 665.747 878.31 673.747 874.15 680.68C870.097 687.613 864.55 693 857.51 696.84C850.577 700.573 842.79 702.44 834.15 702.44ZM834.15 682.92C838.203 682.92 841.99 681.96 845.51 680.04C849.137 678.013 852.017 675.027 854.15 671.08C856.283 667.133 857.35 662.333 857.35 656.68C857.35 648.253 855.11 641.8 850.63 637.32C846.257 632.733 840.87 630.44 834.47 630.44C828.07 630.44 822.683 632.733 818.31 637.32C814.043 641.8 811.91 648.253 811.91 656.68C811.91 665.107 813.99 671.613 818.15 676.2C822.417 680.68 827.75 682.92 834.15 682.92ZM1019.7 612.36L993.781 701H969.621L953.461 639.08L937.301 701H912.981L886.901 612.36H909.621L925.301 679.88L942.261 612.36H965.941L982.581 679.72L998.261 612.36H1019.7Z" fill="#121212"/>
<circle cx="335" cy="410" r="75" fill="#01AAE4"/>
<path d="M312.43 409.3C312.43 403.533 313.464 399.017 315.53 395.75C317.63 392.483 321.097 390.85 325.93 390.85C330.764 390.85 334.214 392.483 336.28 395.75C338.38 399.017 339.43 403.533 339.43 409.3C339.43 415.1 338.38 419.65 336.28 422.95C334.214 426.25 330.764 427.9 325.93 427.9C321.097 427.9 317.63 426.25 315.53 422.95C313.464 419.65 312.43 415.1 312.43 409.3ZM332.53 409.3C332.53 406.833 332.364 404.767 332.03 403.1C331.73 401.4 331.097 400.017 330.13 398.95C329.197 397.883 327.797 397.35 325.93 397.35C324.064 397.35 322.647 397.883 321.68 398.95C320.747 400.017 320.114 401.4 319.78 403.1C319.48 404.767 319.33 406.833 319.33 409.3C319.33 411.833 319.48 413.967 319.78 415.7C320.08 417.4 320.714 418.783 321.68 419.85C322.647 420.883 324.064 421.4 325.93 421.4C327.797 421.4 329.214 420.883 330.18 419.85C331.147 418.783 331.78 417.4 332.08 415.7C332.38 413.967 332.53 411.833 332.53 409.3ZM343.904 398V391.55H355.954V428H348.754V398H343.904Z" fill="white"/>
</svg>
