<svg width="1920" height="1080" viewBox="0 0 1920 1080" fill="none" xmlns="http://www.w3.org/2000/svg">
<rect width="1920" height="1080" fill="white"/>
<path d="M340 589.32V607.4H293.44V636.04H329.12V653.8H293.44V701H271.04V589.32H340ZM438.284 654.76C438.284 657.96 438.07 660.84 437.644 663.4H372.844C373.377 669.8 375.617 674.813 379.564 678.44C383.51 682.067 388.364 683.88 394.124 683.88C402.444 683.88 408.364 680.307 411.884 673.16H436.044C433.484 681.693 428.577 688.733 421.324 694.28C414.07 699.72 405.164 702.44 394.604 702.44C386.07 702.44 378.39 700.573 371.564 696.84C364.844 693 359.564 687.613 355.724 680.68C351.99 673.747 350.124 665.747 350.124 656.68C350.124 647.507 351.99 639.453 355.724 632.52C359.457 625.587 364.684 620.253 371.404 616.52C378.124 612.787 385.857 610.92 394.604 610.92C403.03 610.92 410.55 612.733 417.164 616.36C423.884 619.987 429.057 625.16 432.684 631.88C436.417 638.493 438.284 646.12 438.284 654.76ZM415.084 648.36C414.977 642.6 412.897 638.013 408.844 634.6C404.79 631.08 399.83 629.32 393.964 629.32C388.417 629.32 383.724 631.027 379.884 634.44C376.15 637.747 373.857 642.387 373.004 648.36H415.084ZM448.874 656.36C448.874 647.4 450.634 639.453 454.154 632.52C457.78 625.587 462.634 620.253 468.714 616.52C474.9 612.787 481.78 610.92 489.354 610.92C495.967 610.92 501.727 612.253 506.634 614.92C511.647 617.587 515.647 620.947 518.634 625V612.36H541.194V701H518.634V688.04C515.754 692.2 511.754 695.667 506.634 698.44C501.62 701.107 495.807 702.44 489.194 702.44C481.727 702.44 474.9 700.52 468.714 696.68C462.634 692.84 457.78 687.453 454.154 680.52C450.634 673.48 448.874 665.427 448.874 656.36ZM518.634 656.68C518.634 651.24 517.567 646.6 515.434 642.76C513.3 638.813 510.42 635.827 506.794 633.8C503.167 631.667 499.274 630.6 495.114 630.6C490.954 630.6 487.114 631.613 483.594 633.64C480.074 635.667 477.194 638.653 474.954 642.6C472.82 646.44 471.754 651.027 471.754 656.36C471.754 661.693 472.82 666.387 474.954 670.44C477.194 674.387 480.074 677.427 483.594 679.56C487.22 681.693 491.06 682.76 495.114 682.76C499.274 682.76 503.167 681.747 506.794 679.72C510.42 677.587 513.3 674.6 515.434 670.76C517.567 666.813 518.634 662.12 518.634 656.68ZM589.151 630.76V673.64C589.151 676.627 589.845 678.813 591.231 680.2C592.725 681.48 595.178 682.12 598.591 682.12H608.991V701H594.911C576.031 701 566.591 691.827 566.591 673.48V630.76H556.031V612.36H566.591V590.44H589.151V612.36H608.991V630.76H589.151ZM708.783 612.36V701H686.223V689.8C683.343 693.64 679.556 696.68 674.863 698.92C670.276 701.053 665.263 702.12 659.823 702.12C652.889 702.12 646.756 700.68 641.423 697.8C636.089 694.813 631.876 690.493 628.783 684.84C625.796 679.08 624.303 672.253 624.303 664.36V612.36H646.703V661.16C646.703 668.2 648.463 673.64 651.983 677.48C655.503 681.213 660.303 683.08 666.383 683.08C672.569 683.08 677.423 681.213 680.943 677.48C684.463 673.64 686.223 668.2 686.223 661.16V612.36H708.783ZM753.284 626.12C756.164 621.427 759.897 617.747 764.484 615.08C769.177 612.413 774.51 611.08 780.484 611.08V634.6H774.564C767.524 634.6 762.19 636.253 758.564 639.56C755.044 642.867 753.284 648.627 753.284 656.84V701H730.884V612.36H753.284V626.12ZM877.971 654.76C877.971 657.96 877.758 660.84 877.331 663.4H812.531C813.065 669.8 815.305 674.813 819.251 678.44C823.198 682.067 828.051 683.88 833.811 683.88C842.131 683.88 848.051 680.307 851.571 673.16H875.731C873.171 681.693 868.265 688.733 861.011 694.28C853.758 699.72 844.851 702.44 834.291 702.44C825.758 702.44 818.078 700.573 811.251 696.84C804.531 693 799.251 687.613 795.411 680.68C791.678 673.747 789.811 665.747 789.811 656.68C789.811 647.507 791.678 639.453 795.411 632.52C799.145 625.587 804.371 620.253 811.091 616.52C817.811 612.787 825.545 610.92 834.291 610.92C842.718 610.92 850.238 612.733 856.851 616.36C863.571 619.987 868.745 625.16 872.371 631.88C876.105 638.493 877.971 646.12 877.971 654.76ZM854.771 648.36C854.665 642.6 852.585 638.013 848.531 634.6C844.478 631.08 839.518 629.32 833.651 629.32C828.105 629.32 823.411 631.027 819.571 634.44C815.838 637.747 813.545 642.387 812.691 648.36H854.771ZM928.241 702.44C920.988 702.44 914.481 701.16 908.721 698.6C902.961 695.933 898.375 692.36 894.961 687.88C891.655 683.4 889.841 678.44 889.521 673H912.081C912.508 676.413 914.161 679.24 917.041 681.48C920.028 683.72 923.708 684.84 928.081 684.84C932.348 684.84 935.655 683.987 938.001 682.28C940.455 680.573 941.681 678.387 941.681 675.72C941.681 672.84 940.188 670.707 937.201 669.32C934.321 667.827 929.681 666.227 923.281 664.52C916.668 662.92 911.228 661.267 906.961 659.56C902.801 657.853 899.175 655.24 896.081 651.72C893.095 648.2 891.601 643.453 891.601 637.48C891.601 632.573 892.988 628.093 895.761 624.04C898.641 619.987 902.695 616.787 907.921 614.44C913.255 612.093 919.495 610.92 926.641 610.92C937.201 610.92 945.628 613.587 951.921 618.92C958.215 624.147 961.681 631.24 962.321 640.2H940.881C940.561 636.68 939.068 633.907 936.401 631.88C933.841 629.747 930.375 628.68 926.001 628.68C921.948 628.68 918.801 629.427 916.561 630.92C914.428 632.413 913.361 634.493 913.361 637.16C913.361 640.147 914.855 642.44 917.841 644.04C920.828 645.533 925.468 647.08 931.761 648.68C938.161 650.28 943.441 651.933 947.601 653.64C951.761 655.347 955.335 658.013 958.321 661.64C961.415 665.16 963.015 669.853 963.121 675.72C963.121 680.84 961.681 685.427 958.801 689.48C956.028 693.533 951.975 696.733 946.641 699.08C941.415 701.32 935.281 702.44 928.241 702.44Z" fill="#121212"/>
<circle cx="335" cy="410" r="75" fill="#01AAE4"/>
<path d="M306.522 409.3C306.522 403.533 307.555 399.017 309.622 395.75C311.722 392.483 315.189 390.85 320.022 390.85C324.855 390.85 328.305 392.483 330.372 395.75C332.472 399.017 333.522 403.533 333.522 409.3C333.522 415.1 332.472 419.65 330.372 422.95C328.305 426.25 324.855 427.9 320.022 427.9C315.189 427.9 311.722 426.25 309.622 422.95C307.555 419.65 306.522 415.1 306.522 409.3ZM326.622 409.3C326.622 406.833 326.455 404.767 326.122 403.1C325.822 401.4 325.189 400.017 324.222 398.95C323.289 397.883 321.889 397.35 320.022 397.35C318.155 397.35 316.739 397.883 315.772 398.95C314.839 400.017 314.205 401.4 313.872 403.1C313.572 404.767 313.422 406.833 313.422 409.3C313.422 411.833 313.572 413.967 313.872 415.7C314.172 417.4 314.805 418.783 315.772 419.85C316.739 420.883 318.155 421.4 320.022 421.4C321.889 421.4 323.305 420.883 324.272 419.85C325.239 418.783 325.872 417.4 326.172 415.7C326.472 413.967 326.622 411.833 326.622 409.3ZM338.946 401.15C339.113 397.817 340.28 395.25 342.446 393.45C344.646 391.617 347.53 390.7 351.096 390.7C353.53 390.7 355.613 391.133 357.346 392C359.08 392.833 360.38 393.983 361.246 395.45C362.146 396.883 362.596 398.517 362.596 400.35C362.596 402.45 362.046 404.233 360.946 405.7C359.88 407.133 358.596 408.1 357.096 408.6V408.8C359.03 409.4 360.53 410.467 361.596 412C362.696 413.533 363.246 415.5 363.246 417.9C363.246 419.9 362.78 421.683 361.846 423.25C360.946 424.817 359.596 426.05 357.796 426.95C356.03 427.817 353.896 428.25 351.396 428.25C347.63 428.25 344.563 427.3 342.196 425.4C339.83 423.5 338.58 420.7 338.446 417H345.246C345.313 418.633 345.863 419.95 346.896 420.95C347.963 421.917 349.413 422.4 351.246 422.4C352.946 422.4 354.246 421.933 355.146 421C356.08 420.033 356.546 418.8 356.546 417.3C356.546 415.3 355.913 413.867 354.646 413C353.38 412.133 351.413 411.7 348.746 411.7H347.296V405.95H348.746C353.48 405.95 355.846 404.367 355.846 401.2C355.846 399.767 355.413 398.65 354.546 397.85C353.713 397.05 352.496 396.65 350.896 396.65C349.33 396.65 348.113 397.083 347.246 397.95C346.413 398.783 345.93 399.85 345.796 401.15H338.946Z" fill="white"/>
</svg>
