<svg width="1920" height="1080" viewBox="0 0 1920 1080" fill="none" xmlns="http://www.w3.org/2000/svg">
<rect width="1920" height="1080" fill="white"/>
<path d="M309.6 702.12C301.813 702.12 294.773 700.787 288.48 698.12C282.293 695.453 277.387 691.613 273.76 686.6C270.133 681.587 268.267 675.667 268.16 668.84H292.16C292.48 673.427 294.08 677.053 296.96 679.72C299.947 682.387 304 683.72 309.12 683.72C314.347 683.72 318.453 682.493 321.44 680.04C324.427 677.48 325.92 674.173 325.92 670.12C325.92 666.813 324.907 664.093 322.88 661.96C320.853 659.827 318.293 658.173 315.2 657C312.213 655.72 308.053 654.333 302.72 652.84C295.467 650.707 289.547 648.627 284.96 646.6C280.48 644.467 276.587 641.32 273.28 637.16C270.08 632.893 268.48 627.24 268.48 620.2C268.48 613.587 270.133 607.827 273.44 602.92C276.747 598.013 281.387 594.28 287.36 591.72C293.333 589.053 300.16 587.72 307.84 587.72C319.36 587.72 328.693 590.547 335.84 596.2C343.093 601.747 347.093 609.533 347.84 619.56H323.2C322.987 615.72 321.333 612.573 318.24 610.12C315.253 607.56 311.253 606.28 306.24 606.28C301.867 606.28 298.347 607.4 295.68 609.64C293.12 611.88 291.84 615.133 291.84 619.4C291.84 622.387 292.8 624.893 294.72 626.92C296.747 628.84 299.2 630.44 302.08 631.72C305.067 632.893 309.227 634.28 314.56 635.88C321.813 638.013 327.733 640.147 332.32 642.28C336.907 644.413 340.853 647.613 344.16 651.88C347.467 656.147 349.12 661.747 349.12 668.68C349.12 674.653 347.573 680.2 344.48 685.32C341.387 690.44 336.853 694.547 330.88 697.64C324.907 700.627 317.813 702.12 309.6 702.12ZM450.94 654.76C450.94 657.96 450.727 660.84 450.3 663.4H385.5C386.033 669.8 388.273 674.813 392.22 678.44C396.167 682.067 401.02 683.88 406.78 683.88C415.1 683.88 421.02 680.307 424.54 673.16H448.7C446.14 681.693 441.233 688.733 433.98 694.28C426.727 699.72 417.82 702.44 407.26 702.44C398.727 702.44 391.047 700.573 384.22 696.84C377.5 693 372.22 687.613 368.38 680.68C364.647 673.747 362.78 665.747 362.78 656.68C362.78 647.507 364.647 639.453 368.38 632.52C372.113 625.587 377.34 620.253 384.06 616.52C390.78 612.787 398.513 610.92 407.26 610.92C415.687 610.92 423.207 612.733 429.82 616.36C436.54 619.987 441.713 625.16 445.34 631.88C449.073 638.493 450.94 646.12 450.94 654.76ZM427.74 648.36C427.633 642.6 425.553 638.013 421.5 634.6C417.447 631.08 412.487 629.32 406.62 629.32C401.073 629.32 396.38 631.027 392.54 634.44C388.807 637.747 386.513 642.387 385.66 648.36H427.74ZM461.53 656.68C461.53 647.507 463.397 639.507 467.13 632.68C470.863 625.747 476.037 620.413 482.65 616.68C489.263 612.84 496.837 610.92 505.37 610.92C516.357 610.92 525.423 613.693 532.57 619.24C539.823 624.68 544.677 632.36 547.13 642.28H522.97C521.69 638.44 519.503 635.453 516.41 633.32C513.423 631.08 509.69 629.96 505.21 629.96C498.81 629.96 493.743 632.307 490.01 637C486.277 641.587 484.41 648.147 484.41 656.68C484.41 665.107 486.277 671.667 490.01 676.36C493.743 680.947 498.81 683.24 505.21 683.24C514.277 683.24 520.197 679.187 522.97 671.08H547.13C544.677 680.68 539.823 688.307 532.57 693.96C525.317 699.613 516.25 702.44 505.37 702.44C496.837 702.44 489.263 700.573 482.65 696.84C476.037 693 470.863 687.667 467.13 680.84C463.397 673.907 461.53 665.853 461.53 656.68ZM647.22 612.36V701H624.66V689.8C621.78 693.64 617.993 696.68 613.3 698.92C608.713 701.053 603.7 702.12 598.26 702.12C591.327 702.12 585.193 700.68 579.86 697.8C574.527 694.813 570.313 690.493 567.22 684.84C564.233 679.08 562.74 672.253 562.74 664.36V612.36H585.14V661.16C585.14 668.2 586.9 673.64 590.42 677.48C593.94 681.213 598.74 683.08 604.82 683.08C611.007 683.08 615.86 681.213 619.38 677.48C622.9 673.64 624.66 668.2 624.66 661.16V612.36H647.22ZM691.721 626.12C694.601 621.427 698.335 617.747 702.921 615.08C707.615 612.413 712.948 611.08 718.921 611.08V634.6H713.001C705.961 634.6 700.628 636.253 697.001 639.56C693.481 642.867 691.721 648.627 691.721 656.84V701H669.321V612.36H691.721V626.12ZM745.369 601.8C741.422 601.8 738.115 600.573 735.449 598.12C732.889 595.56 731.609 592.413 731.609 588.68C731.609 584.947 732.889 581.853 735.449 579.4C738.115 576.84 741.422 575.56 745.369 575.56C749.315 575.56 752.569 576.84 755.129 579.4C757.795 581.853 759.129 584.947 759.129 588.68C759.129 592.413 757.795 595.56 755.129 598.12C752.569 600.573 749.315 601.8 745.369 601.8ZM756.409 612.36V701H734.009V612.36H756.409ZM804.62 630.76V673.64C804.62 676.627 805.313 678.813 806.7 680.2C808.193 681.48 810.647 682.12 814.06 682.12H824.46V701H810.38C791.5 701 782.06 691.827 782.06 673.48V630.76H771.5V612.36H782.06V590.44H804.62V612.36H824.46V630.76H804.62ZM925.371 612.36L870.491 742.92H846.651L865.851 698.76L830.331 612.36H855.451L878.331 674.28L901.531 612.36H925.371Z" fill="#121212"/>
<circle cx="335" cy="410" r="75" fill="#01AAE4"/>
<path d="M307.132 409.3C307.132 403.533 308.166 399.017 310.232 395.75C312.332 392.483 315.799 390.85 320.632 390.85C325.466 390.85 328.916 392.483 330.982 395.75C333.082 399.017 334.132 403.533 334.132 409.3C334.132 415.1 333.082 419.65 330.982 422.95C328.916 426.25 325.466 427.9 320.632 427.9C315.799 427.9 312.332 426.25 310.232 422.95C308.166 419.65 307.132 415.1 307.132 409.3ZM327.232 409.3C327.232 406.833 327.066 404.767 326.732 403.1C326.432 401.4 325.799 400.017 324.832 398.95C323.899 397.883 322.499 397.35 320.632 397.35C318.766 397.35 317.349 397.883 316.382 398.95C315.449 400.017 314.816 401.4 314.482 403.1C314.182 404.767 314.032 406.833 314.032 409.3C314.032 411.833 314.182 413.967 314.482 415.7C314.782 417.4 315.416 418.783 316.382 419.85C317.349 420.883 318.766 421.4 320.632 421.4C322.499 421.4 323.916 420.883 324.882 419.85C325.849 418.783 326.482 417.4 326.782 415.7C327.082 413.967 327.232 411.833 327.232 409.3ZM341.657 420.1C344.857 417.433 347.407 415.217 349.307 413.45C351.207 411.65 352.79 409.783 354.057 407.85C355.323 405.917 355.957 404.017 355.957 402.15C355.957 400.45 355.557 399.117 354.757 398.15C353.957 397.183 352.723 396.7 351.057 396.7C349.39 396.7 348.107 397.267 347.207 398.4C346.307 399.5 345.84 401.017 345.807 402.95H339.007C339.14 398.95 340.323 395.917 342.557 393.85C344.823 391.783 347.69 390.75 351.157 390.75C354.957 390.75 357.873 391.767 359.907 393.8C361.94 395.8 362.957 398.45 362.957 401.75C362.957 404.35 362.257 406.833 360.857 409.2C359.457 411.567 357.857 413.633 356.057 415.4C354.257 417.133 351.907 419.233 349.007 421.7H363.757V427.5H339.057V422.3L341.657 420.1Z" fill="white"/>
</svg>
