<svg width="1920" height="1080" viewBox="0 0 1920 1080" fill="none" xmlns="http://www.w3.org/2000/svg">
<rect width="1920" height="1080" fill="white"/>
<path d="M310.08 589.32C321.813 589.32 332.107 591.613 340.96 596.2C349.92 600.787 356.8 607.347 361.6 615.88C366.507 624.307 368.96 634.12 368.96 645.32C368.96 656.52 366.507 666.333 361.6 674.76C356.8 683.08 349.92 689.533 340.96 694.12C332.107 698.707 321.813 701 310.08 701H271.04V589.32H310.08ZM309.28 681.96C321.013 681.96 330.08 678.76 336.48 672.36C342.88 665.96 346.08 656.947 346.08 645.32C346.08 633.693 342.88 624.627 336.48 618.12C330.08 611.507 321.013 608.2 309.28 608.2H293.44V681.96H309.28ZM468.128 654.76C468.128 657.96 467.914 660.84 467.488 663.4H402.688C403.221 669.8 405.461 674.813 409.408 678.44C413.354 682.067 418.208 683.88 423.968 683.88C432.288 683.88 438.208 680.307 441.728 673.16H465.888C463.328 681.693 458.421 688.733 451.168 694.28C443.914 699.72 435.008 702.44 424.448 702.44C415.914 702.44 408.234 700.573 401.408 696.84C394.688 693 389.408 687.613 385.568 680.68C381.834 673.747 379.967 665.747 379.967 656.68C379.967 647.507 381.834 639.453 385.568 632.52C389.301 625.587 394.528 620.253 401.248 616.52C407.968 612.787 415.701 610.92 424.448 610.92C432.874 610.92 440.394 612.733 447.008 616.36C453.728 619.987 458.901 625.16 462.528 631.88C466.261 638.493 468.128 646.12 468.128 654.76ZM444.928 648.36C444.821 642.6 442.741 638.013 438.688 634.6C434.634 631.08 429.674 629.32 423.808 629.32C418.261 629.32 413.568 631.027 409.728 634.44C405.994 637.747 403.701 642.387 402.848 648.36H444.928ZM594.558 611.08C605.438 611.08 614.184 614.44 620.798 621.16C627.518 627.773 630.878 637.053 630.878 649V701H608.478V652.04C608.478 645.107 606.718 639.827 603.198 636.2C599.678 632.467 594.878 630.6 588.798 630.6C582.718 630.6 577.864 632.467 574.238 636.2C570.718 639.827 568.958 645.107 568.958 652.04V701H546.558V652.04C546.558 645.107 544.798 639.827 541.278 636.2C537.758 632.467 532.958 630.6 526.878 630.6C520.691 630.6 515.784 632.467 512.158 636.2C508.638 639.827 506.878 645.107 506.878 652.04V701H484.478V612.36H506.878V623.08C509.758 619.347 513.438 616.413 517.918 614.28C522.504 612.147 527.518 611.08 532.958 611.08C539.891 611.08 546.078 612.573 551.518 615.56C556.958 618.44 561.171 622.6 564.158 628.04C567.038 622.92 571.198 618.813 576.638 615.72C582.184 612.627 588.158 611.08 594.558 611.08ZM691.494 702.44C682.96 702.44 675.28 700.573 668.454 696.84C661.627 693 656.24 687.613 652.294 680.68C648.454 673.747 646.534 665.747 646.534 656.68C646.534 647.613 648.507 639.613 652.454 632.68C656.507 625.747 662 620.413 668.934 616.68C675.867 612.84 683.6 610.92 692.134 610.92C700.667 610.92 708.4 612.84 715.334 616.68C722.267 620.413 727.707 625.747 731.654 632.68C735.707 639.613 737.734 647.613 737.734 656.68C737.734 665.747 735.654 673.747 731.494 680.68C727.44 687.613 721.894 693 714.854 696.84C707.92 700.573 700.134 702.44 691.494 702.44ZM691.494 682.92C695.547 682.92 699.334 681.96 702.854 680.04C706.48 678.013 709.36 675.027 711.494 671.08C713.627 667.133 714.694 662.333 714.694 656.68C714.694 648.253 712.454 641.8 707.974 637.32C703.6 632.733 698.214 630.44 691.814 630.44C685.414 630.44 680.027 632.733 675.654 637.32C671.387 641.8 669.254 648.253 669.254 656.68C669.254 665.107 671.334 671.613 675.494 676.2C679.76 680.68 685.094 682.92 691.494 682.92Z" fill="#121212"/>
<circle cx="335" cy="410" r="75" fill="#01AAE4"/>
<path d="M304.96 409.3C304.96 403.533 305.993 399.017 308.06 395.75C310.16 392.483 313.626 390.85 318.46 390.85C323.293 390.85 326.743 392.483 328.81 395.75C330.91 399.017 331.96 403.533 331.96 409.3C331.96 415.1 330.91 419.65 328.81 422.95C326.743 426.25 323.293 427.9 318.46 427.9C313.626 427.9 310.16 426.25 308.06 422.95C305.993 419.65 304.96 415.1 304.96 409.3ZM325.06 409.3C325.06 406.833 324.893 404.767 324.56 403.1C324.26 401.4 323.626 400.017 322.66 398.95C321.726 397.883 320.326 397.35 318.46 397.35C316.593 397.35 315.176 397.883 314.21 398.95C313.276 400.017 312.643 401.4 312.31 403.1C312.01 404.767 311.86 406.833 311.86 409.3C311.86 411.833 312.01 413.967 312.31 415.7C312.61 417.4 313.243 418.783 314.21 419.85C315.176 420.883 316.593 421.4 318.46 421.4C320.326 421.4 321.743 420.883 322.71 419.85C323.676 418.783 324.31 417.4 324.61 415.7C324.91 413.967 325.06 411.833 325.06 409.3ZM336.984 420.9V415.4L353.334 392H361.484V414.8H365.884V420.9H361.484V428H354.484V420.9H336.984ZM354.934 399.5L344.684 414.8H354.934V399.5Z" fill="white"/>
</svg>
