<svg width="1920" height="1080" viewBox="0 0 1920 1080" fill="none" xmlns="http://www.w3.org/2000/svg">
<rect width="1920" height="1080" fill="white"/>
<path d="M251.75 805.5C251.75 802.067 252.517 799 254.05 796.3C255.617 793.567 257.733 791.45 260.4 789.95C263.1 788.417 266.117 787.65 269.45 787.65C273.35 787.65 276.767 788.65 279.7 790.65C282.633 792.65 284.683 795.417 285.85 798.95H277.8C277 797.283 275.867 796.033 274.4 795.2C272.967 794.367 271.3 793.95 269.4 793.95C267.367 793.95 265.55 794.433 263.95 795.4C262.383 796.333 261.15 797.667 260.25 799.4C259.383 801.133 258.95 803.167 258.95 805.5C258.95 807.8 259.383 809.833 260.25 811.6C261.15 813.333 262.383 814.683 263.95 815.65C265.55 816.583 267.367 817.05 269.4 817.05C271.3 817.05 272.967 816.633 274.4 815.8C275.867 814.933 277 813.667 277.8 812H285.85C284.683 815.567 282.633 818.35 279.7 820.35C276.8 822.317 273.383 823.3 269.45 823.3C266.117 823.3 263.1 822.55 260.4 821.05C257.733 819.517 255.617 817.4 254.05 814.7C252.517 812 251.75 808.933 251.75 805.5ZM304.129 823.45C301.462 823.45 299.062 822.867 296.929 821.7C294.796 820.5 293.112 818.817 291.879 816.65C290.679 814.483 290.079 811.983 290.079 809.15C290.079 806.317 290.696 803.817 291.929 801.65C293.196 799.483 294.912 797.817 297.079 796.65C299.246 795.45 301.662 794.85 304.329 794.85C306.996 794.85 309.412 795.45 311.579 796.65C313.746 797.817 315.446 799.483 316.679 801.65C317.946 803.817 318.579 806.317 318.579 809.15C318.579 811.983 317.929 814.483 316.629 816.65C315.362 818.817 313.629 820.5 311.429 821.7C309.262 822.867 306.829 823.45 304.129 823.45ZM304.129 817.35C305.396 817.35 306.579 817.05 307.679 816.45C308.812 815.817 309.712 814.883 310.379 813.65C311.046 812.417 311.379 810.917 311.379 809.15C311.379 806.517 310.679 804.5 309.279 803.1C307.912 801.667 306.229 800.95 304.229 800.95C302.229 800.95 300.546 801.667 299.179 803.1C297.846 804.5 297.179 806.517 297.179 809.15C297.179 811.783 297.829 813.817 299.129 815.25C300.462 816.65 302.129 817.35 304.129 817.35ZM339.064 794.9C342.364 794.9 345.03 795.95 347.064 798.05C349.097 800.117 350.114 803.017 350.114 806.75V823H343.114V807.7C343.114 805.5 342.564 803.817 341.464 802.65C340.364 801.45 338.864 800.85 336.964 800.85C335.03 800.85 333.497 801.45 332.364 802.65C331.264 803.817 330.714 805.5 330.714 807.7V823H323.714V795.3H330.714V798.75C331.647 797.55 332.83 796.617 334.264 795.95C335.73 795.25 337.33 794.9 339.064 794.9ZM354.97 809.15C354.97 806.283 355.554 803.783 356.72 801.65C357.887 799.483 359.504 797.817 361.57 796.65C363.637 795.45 366.004 794.85 368.67 794.85C372.104 794.85 374.937 795.717 377.17 797.45C379.437 799.15 380.954 801.55 381.72 804.65H374.17C373.77 803.45 373.087 802.517 372.12 801.85C371.187 801.15 370.02 800.8 368.62 800.8C366.62 800.8 365.037 801.533 363.87 803C362.704 804.433 362.12 806.483 362.12 809.15C362.12 811.783 362.704 813.833 363.87 815.3C365.037 816.733 366.62 817.45 368.62 817.45C371.454 817.45 373.304 816.183 374.17 813.65H381.72C380.954 816.65 379.437 819.033 377.17 820.8C374.904 822.567 372.07 823.45 368.67 823.45C366.004 823.45 363.637 822.867 361.57 821.7C359.504 820.5 357.887 818.833 356.72 816.7C355.554 814.533 354.97 812.017 354.97 809.15ZM393.848 786V823H386.848V786H393.848ZM426.914 795.3V823H419.864V819.5C418.964 820.7 417.781 821.65 416.314 822.35C414.881 823.017 413.314 823.35 411.614 823.35C409.448 823.35 407.531 822.9 405.864 822C404.198 821.067 402.881 819.717 401.914 817.95C400.981 816.15 400.514 814.017 400.514 811.55V795.3H407.514V810.55C407.514 812.75 408.064 814.45 409.164 815.65C410.264 816.817 411.764 817.4 413.664 817.4C415.598 817.4 417.114 816.817 418.214 815.65C419.314 814.45 419.864 812.75 419.864 810.55V795.3H426.914ZM444.421 823.45C442.154 823.45 440.121 823.05 438.321 822.25C436.521 821.417 435.088 820.3 434.021 818.9C432.988 817.5 432.421 815.95 432.321 814.25H439.371C439.504 815.317 440.021 816.2 440.921 816.9C441.854 817.6 443.004 817.95 444.371 817.95C445.704 817.95 446.738 817.683 447.471 817.15C448.238 816.617 448.621 815.933 448.621 815.1C448.621 814.2 448.154 813.533 447.221 813.1C446.321 812.633 444.871 812.133 442.871 811.6C440.804 811.1 439.104 810.583 437.771 810.05C436.471 809.517 435.338 808.7 434.371 807.6C433.438 806.5 432.971 805.017 432.971 803.15C432.971 801.617 433.404 800.217 434.271 798.95C435.171 797.683 436.438 796.683 438.071 795.95C439.738 795.217 441.688 794.85 443.921 794.85C447.221 794.85 449.854 795.683 451.821 797.35C453.788 798.983 454.871 801.2 455.071 804H448.371C448.271 802.9 447.804 802.033 446.971 801.4C446.171 800.733 445.088 800.4 443.721 800.4C442.454 800.4 441.471 800.633 440.771 801.1C440.104 801.567 439.771 802.217 439.771 803.05C439.771 803.983 440.238 804.7 441.171 805.2C442.104 805.667 443.554 806.15 445.521 806.65C447.521 807.15 449.171 807.667 450.471 808.2C451.771 808.733 452.888 809.567 453.821 810.7C454.788 811.8 455.288 813.267 455.321 815.1C455.321 816.7 454.871 818.133 453.971 819.4C453.104 820.667 451.838 821.667 450.171 822.4C448.538 823.1 446.621 823.45 444.421 823.45ZM464.617 792C463.384 792 462.351 791.617 461.517 790.85C460.717 790.05 460.317 789.067 460.317 787.9C460.317 786.733 460.717 785.767 461.517 785C462.351 784.2 463.384 783.8 464.617 783.8C465.851 783.8 466.867 784.2 467.667 785C468.501 785.767 468.917 786.733 468.917 787.9C468.917 789.067 468.501 790.05 467.667 790.85C466.867 791.617 465.851 792 464.617 792ZM468.067 795.3V823H461.067V795.3H468.067ZM487.283 823.45C484.617 823.45 482.217 822.867 480.083 821.7C477.95 820.5 476.267 818.817 475.033 816.65C473.833 814.483 473.233 811.983 473.233 809.15C473.233 806.317 473.85 803.817 475.083 801.65C476.35 799.483 478.067 797.817 480.233 796.65C482.4 795.45 484.817 794.85 487.483 794.85C490.15 794.85 492.567 795.45 494.733 796.65C496.9 797.817 498.6 799.483 499.833 801.65C501.1 803.817 501.733 806.317 501.733 809.15C501.733 811.983 501.083 814.483 499.783 816.65C498.517 818.817 496.783 820.5 494.583 821.7C492.417 822.867 489.983 823.45 487.283 823.45ZM487.283 817.35C488.55 817.35 489.733 817.05 490.833 816.45C491.967 815.817 492.867 814.883 493.533 813.65C494.2 812.417 494.533 810.917 494.533 809.15C494.533 806.517 493.833 804.5 492.433 803.1C491.067 801.667 489.383 800.95 487.383 800.95C485.383 800.95 483.7 801.667 482.333 803.1C481 804.5 480.333 806.517 480.333 809.15C480.333 811.783 480.983 813.817 482.283 815.25C483.617 816.65 485.283 817.35 487.283 817.35ZM522.218 794.9C525.518 794.9 528.185 795.95 530.218 798.05C532.251 800.117 533.268 803.017 533.268 806.75V823H526.268V807.7C526.268 805.5 525.718 803.817 524.618 802.65C523.518 801.45 522.018 800.85 520.118 800.85C518.185 800.85 516.651 801.45 515.518 802.65C514.418 803.817 513.868 805.5 513.868 807.7V823H506.868V795.3H513.868V798.75C514.801 797.55 515.985 796.617 517.418 795.95C518.885 795.25 520.485 794.9 522.218 794.9Z" fill="#121212"/>
<circle cx="155" cy="805" r="55" fill="#01AAE4"/>
<path d="M133.428 805.076C133.428 813.692 136.668 818 143.148 818C146.58 818 149.052 816.848 150.564 814.544C152.076 812.24 152.832 809.084 152.832 805.076C152.832 801.092 152.076 797.948 150.564 795.644C149.052 793.34 146.58 792.188 143.148 792.188C136.668 792.188 133.428 796.484 133.428 805.076ZM147.828 805.076C147.828 807.692 147.504 809.708 146.856 811.124C146.232 812.516 144.996 813.212 143.148 813.212C141.276 813.212 140.016 812.516 139.368 811.124C138.744 809.708 138.432 807.692 138.432 805.076C138.432 802.484 138.744 800.492 139.368 799.1C140.016 797.684 141.276 796.976 143.148 796.976C144.996 796.976 146.232 797.684 146.856 799.1C147.504 800.492 147.828 802.484 147.828 805.076ZM174.354 796.544H162.294V802.952C162.846 802.304 163.602 801.788 164.562 801.404C165.546 800.996 166.626 800.792 167.802 800.792C169.554 800.792 171.006 801.176 172.158 801.944C173.334 802.688 174.198 803.696 174.75 804.968C175.326 806.216 175.614 807.608 175.614 809.144C175.614 811.856 174.846 814.028 173.31 815.66C171.798 817.292 169.626 818.108 166.794 818.108C164.946 818.108 163.338 817.784 161.97 817.136C160.602 816.464 159.534 815.54 158.766 814.364C157.998 813.164 157.578 811.772 157.506 810.188H162.438C162.63 811.268 163.074 812.132 163.77 812.78C164.466 813.404 165.39 813.716 166.542 813.716C167.934 813.716 168.966 813.296 169.638 812.456C170.334 811.592 170.682 810.452 170.682 809.036C170.682 807.692 170.322 806.648 169.602 805.904C168.882 805.16 167.862 804.788 166.542 804.788C165.582 804.788 164.766 805.004 164.094 805.436C163.422 805.844 162.93 806.396 162.618 807.092H157.686V792.08H174.354V796.544Z" fill="white"/>
<path d="M1185.65 561.1C1189.32 561.1 1192.53 561.817 1195.3 563.25C1198.1 564.683 1200.25 566.733 1201.75 569.4C1203.28 572.033 1204.05 575.1 1204.05 578.6C1204.05 582.1 1203.28 585.167 1201.75 587.8C1200.25 590.4 1198.1 592.417 1195.3 593.85C1192.53 595.283 1189.32 596 1185.65 596H1173.45V561.1H1185.65ZM1185.4 590.05C1189.07 590.05 1191.9 589.05 1193.9 587.05C1195.9 585.05 1196.9 582.233 1196.9 578.6C1196.9 574.967 1195.9 572.133 1193.9 570.1C1191.9 568.033 1189.07 567 1185.4 567H1180.45V590.05H1185.4ZM1235.04 581.55C1235.04 582.55 1234.97 583.45 1234.84 584.25H1214.59C1214.76 586.25 1215.46 587.817 1216.69 588.95C1217.92 590.083 1219.44 590.65 1221.24 590.65C1223.84 590.65 1225.69 589.533 1226.79 587.3H1234.34C1233.54 589.967 1232.01 592.167 1229.74 593.9C1227.47 595.6 1224.69 596.45 1221.39 596.45C1218.72 596.45 1216.32 595.867 1214.19 594.7C1212.09 593.5 1210.44 591.817 1209.24 589.65C1208.07 587.483 1207.49 584.983 1207.49 582.15C1207.49 579.283 1208.07 576.767 1209.24 574.6C1210.41 572.433 1212.04 570.767 1214.14 569.6C1216.24 568.433 1218.66 567.85 1221.39 567.85C1224.02 567.85 1226.37 568.417 1228.44 569.55C1230.54 570.683 1232.16 572.3 1233.29 574.4C1234.46 576.467 1235.04 578.85 1235.04 581.55ZM1227.79 579.55C1227.76 577.75 1227.11 576.317 1225.84 575.25C1224.57 574.15 1223.02 573.6 1221.19 573.6C1219.46 573.6 1217.99 574.133 1216.79 575.2C1215.62 576.233 1214.91 577.683 1214.64 579.55H1227.79ZM1274.55 567.9C1277.95 567.9 1280.68 568.95 1282.75 571.05C1284.85 573.117 1285.9 576.017 1285.9 579.75V596H1278.9V580.7C1278.9 578.533 1278.35 576.883 1277.25 575.75C1276.15 574.583 1274.65 574 1272.75 574C1270.85 574 1269.33 574.583 1268.2 575.75C1267.1 576.883 1266.55 578.533 1266.55 580.7V596H1259.55V580.7C1259.55 578.533 1259 576.883 1257.9 575.75C1256.8 574.583 1255.3 574 1253.4 574C1251.47 574 1249.93 574.583 1248.8 575.75C1247.7 576.883 1247.15 578.533 1247.15 580.7V596H1240.15V568.3H1247.15V571.65C1248.05 570.483 1249.2 569.567 1250.6 568.9C1252.03 568.233 1253.6 567.9 1255.3 567.9C1257.47 567.9 1259.4 568.367 1261.1 569.3C1262.8 570.2 1264.12 571.5 1265.05 573.2C1265.95 571.6 1267.25 570.317 1268.95 569.35C1270.68 568.383 1272.55 567.9 1274.55 567.9ZM1304.84 596.45C1302.18 596.45 1299.78 595.867 1297.64 594.7C1295.51 593.5 1293.83 591.817 1292.59 589.65C1291.39 587.483 1290.79 584.983 1290.79 582.15C1290.79 579.317 1291.41 576.817 1292.64 574.65C1293.91 572.483 1295.63 570.817 1297.79 569.65C1299.96 568.45 1302.38 567.85 1305.04 567.85C1307.71 567.85 1310.13 568.45 1312.29 569.65C1314.46 570.817 1316.16 572.483 1317.39 574.65C1318.66 576.817 1319.29 579.317 1319.29 582.15C1319.29 584.983 1318.64 587.483 1317.34 589.65C1316.08 591.817 1314.34 593.5 1312.14 594.7C1309.98 595.867 1307.54 596.45 1304.84 596.45ZM1304.84 590.35C1306.11 590.35 1307.29 590.05 1308.39 589.45C1309.53 588.817 1310.43 587.883 1311.09 586.65C1311.76 585.417 1312.09 583.917 1312.09 582.15C1312.09 579.517 1311.39 577.5 1309.99 576.1C1308.63 574.667 1306.94 573.95 1304.94 573.95C1302.94 573.95 1301.26 574.667 1299.89 576.1C1298.56 577.5 1297.89 579.517 1297.89 582.15C1297.89 584.783 1298.54 586.817 1299.84 588.25C1301.18 589.65 1302.84 590.35 1304.84 590.35Z" fill="#121212"/>
<circle cx="1075" cy="578" r="55" fill="#01AAE4"/>
<path d="M1053.08 578.076C1053.08 586.692 1056.32 591 1062.8 591C1066.23 591 1068.7 589.848 1070.21 587.544C1071.72 585.24 1072.48 582.084 1072.48 578.076C1072.48 574.092 1071.72 570.948 1070.21 568.644C1068.7 566.34 1066.23 565.188 1062.8 565.188C1056.32 565.188 1053.08 569.484 1053.08 578.076ZM1067.48 578.076C1067.48 580.692 1067.15 582.708 1066.5 584.124C1065.88 585.516 1064.64 586.212 1062.8 586.212C1060.92 586.212 1059.66 585.516 1059.02 584.124C1058.39 582.708 1058.08 580.692 1058.08 578.076C1058.08 575.484 1058.39 573.492 1059.02 572.1C1059.66 570.684 1060.92 569.976 1062.8 569.976C1064.64 569.976 1065.88 570.684 1066.5 572.1C1067.15 573.492 1067.48 575.484 1067.48 578.076ZM1075.53 585.888V581.676L1087.7 565.296H1093.14V581.496H1096.45V585.888H1093.14V591H1088.03V585.888H1075.53ZM1088.42 571.236L1080.72 581.496H1088.42V571.236Z" fill="white"/>
<path d="M275 561.1V566.75H260.45V575.7H271.6V581.25H260.45V596H253.45V561.1H275ZM305.714 581.55C305.714 582.55 305.647 583.45 305.514 584.25H285.264C285.43 586.25 286.13 587.817 287.364 588.95C288.597 590.083 290.114 590.65 291.914 590.65C294.514 590.65 296.364 589.533 297.464 587.3H305.014C304.214 589.967 302.68 592.167 300.414 593.9C298.147 595.6 295.364 596.45 292.064 596.45C289.397 596.45 286.997 595.867 284.864 594.7C282.764 593.5 281.114 591.817 279.914 589.65C278.747 587.483 278.164 584.983 278.164 582.15C278.164 579.283 278.747 576.767 279.914 574.6C281.08 572.433 282.714 570.767 284.814 569.6C286.914 568.433 289.33 567.85 292.064 567.85C294.697 567.85 297.047 568.417 299.114 569.55C301.214 570.683 302.83 572.3 303.964 574.4C305.13 576.467 305.714 578.85 305.714 581.55ZM298.464 579.55C298.43 577.75 297.78 576.317 296.514 575.25C295.247 574.15 293.697 573.6 291.864 573.6C290.13 573.6 288.664 574.133 287.464 575.2C286.297 576.233 285.58 577.683 285.314 579.55H298.464ZM309.023 582.05C309.023 579.25 309.573 576.767 310.673 574.6C311.806 572.433 313.323 570.767 315.223 569.6C317.156 568.433 319.306 567.85 321.673 567.85C323.74 567.85 325.54 568.267 327.073 569.1C328.64 569.933 329.89 570.983 330.823 572.25V568.3H337.873V596H330.823V591.95C329.923 593.25 328.673 594.333 327.073 595.2C325.506 596.033 323.69 596.45 321.623 596.45C319.29 596.45 317.156 595.85 315.223 594.65C313.323 593.45 311.806 591.767 310.673 589.6C309.573 587.4 309.023 584.883 309.023 582.05ZM330.823 582.15C330.823 580.45 330.49 579 329.823 577.8C329.156 576.567 328.256 575.633 327.123 575C325.99 574.333 324.773 574 323.473 574C322.173 574 320.973 574.317 319.873 574.95C318.773 575.583 317.873 576.517 317.173 577.75C316.506 578.95 316.173 580.383 316.173 582.05C316.173 583.717 316.506 585.183 317.173 586.45C317.873 587.683 318.773 588.633 319.873 589.3C321.006 589.967 322.206 590.3 323.473 590.3C324.773 590.3 325.99 589.983 327.123 589.35C328.256 588.683 329.156 587.75 329.823 586.55C330.49 585.317 330.823 583.85 330.823 582.15ZM352.86 574.05V587.45C352.86 588.383 353.076 589.067 353.51 589.5C353.976 589.9 354.743 590.1 355.81 590.1H359.06V596H354.66C348.76 596 345.81 593.133 345.81 587.4V574.05H342.51V568.3H345.81V561.45H352.86V568.3H359.06V574.05H352.86ZM390.245 568.3V596H383.195V592.5C382.295 593.7 381.111 594.65 379.645 595.35C378.211 596.017 376.645 596.35 374.945 596.35C372.778 596.35 370.861 595.9 369.195 595C367.528 594.067 366.211 592.717 365.245 590.95C364.311 589.15 363.845 587.017 363.845 584.55V568.3H370.845V583.55C370.845 585.75 371.395 587.45 372.495 588.65C373.595 589.817 375.095 590.4 376.995 590.4C378.928 590.4 380.445 589.817 381.545 588.65C382.645 587.45 383.195 585.75 383.195 583.55V568.3H390.245ZM404.151 572.6C405.051 571.133 406.218 569.983 407.651 569.15C409.118 568.317 410.785 567.9 412.651 567.9V575.25H410.801C408.601 575.25 406.935 575.767 405.801 576.8C404.701 577.833 404.151 579.633 404.151 582.2V596H397.151V568.3H404.151V572.6ZM443.116 581.55C443.116 582.55 443.049 583.45 442.916 584.25H422.666C422.833 586.25 423.533 587.817 424.766 588.95C425.999 590.083 427.516 590.65 429.316 590.65C431.916 590.65 433.766 589.533 434.866 587.3H442.416C441.616 589.967 440.083 592.167 437.816 593.9C435.549 595.6 432.766 596.45 429.466 596.45C426.799 596.45 424.399 595.867 422.266 594.7C420.166 593.5 418.516 591.817 417.316 589.65C416.149 587.483 415.566 584.983 415.566 582.15C415.566 579.283 416.149 576.767 417.316 574.6C418.483 572.433 420.116 570.767 422.216 569.6C424.316 568.433 426.733 567.85 429.466 567.85C432.099 567.85 434.449 568.417 436.516 569.55C438.616 570.683 440.233 572.3 441.366 574.4C442.533 576.467 443.116 578.85 443.116 581.55ZM435.866 579.55C435.833 577.75 435.183 576.317 433.916 575.25C432.649 574.15 431.099 573.6 429.266 573.6C427.533 573.6 426.066 574.133 424.866 575.2C423.699 576.233 422.983 577.683 422.716 579.55H435.866ZM458.825 596.45C456.559 596.45 454.525 596.05 452.725 595.25C450.925 594.417 449.492 593.3 448.425 591.9C447.392 590.5 446.825 588.95 446.725 587.25H453.775C453.909 588.317 454.425 589.2 455.325 589.9C456.259 590.6 457.409 590.95 458.775 590.95C460.109 590.95 461.142 590.683 461.875 590.15C462.642 589.617 463.025 588.933 463.025 588.1C463.025 587.2 462.559 586.533 461.625 586.1C460.725 585.633 459.275 585.133 457.275 584.6C455.209 584.1 453.509 583.583 452.175 583.05C450.875 582.517 449.742 581.7 448.775 580.6C447.842 579.5 447.375 578.017 447.375 576.15C447.375 574.617 447.809 573.217 448.675 571.95C449.575 570.683 450.842 569.683 452.475 568.95C454.142 568.217 456.092 567.85 458.325 567.85C461.625 567.85 464.259 568.683 466.225 570.35C468.192 571.983 469.275 574.2 469.475 577H462.775C462.675 575.9 462.209 575.033 461.375 574.4C460.575 573.733 459.492 573.4 458.125 573.4C456.859 573.4 455.875 573.633 455.175 574.1C454.509 574.567 454.175 575.217 454.175 576.05C454.175 576.983 454.642 577.7 455.575 578.2C456.509 578.667 457.959 579.15 459.925 579.65C461.925 580.15 463.575 580.667 464.875 581.2C466.175 581.733 467.292 582.567 468.225 583.7C469.192 584.8 469.692 586.267 469.725 588.1C469.725 589.7 469.275 591.133 468.375 592.4C467.509 593.667 466.242 594.667 464.575 595.4C462.942 596.1 461.025 596.45 458.825 596.45Z" fill="#121212"/>
<circle cx="155" cy="578" r="55" fill="#01AAE4"/>
<path d="M134.044 578.076C134.044 586.692 137.284 591 143.764 591C147.196 591 149.668 589.848 151.18 587.544C152.692 585.24 153.448 582.084 153.448 578.076C153.448 574.092 152.692 570.948 151.18 568.644C149.668 566.34 147.196 565.188 143.764 565.188C137.284 565.188 134.044 569.484 134.044 578.076ZM148.444 578.076C148.444 580.692 148.12 582.708 147.472 584.124C146.848 585.516 145.612 586.212 143.764 586.212C141.892 586.212 140.632 585.516 139.984 584.124C139.36 582.708 139.048 580.692 139.048 578.076C139.048 575.484 139.36 573.492 139.984 572.1C140.632 570.684 141.892 569.976 143.764 569.976C145.612 569.976 146.848 570.684 147.472 572.1C148.12 573.492 148.444 575.484 148.444 578.076ZM165.934 564.612C167.662 564.612 169.138 564.912 170.362 565.512C171.61 566.112 172.546 566.94 173.17 567.996C173.818 569.052 174.142 570.228 174.142 571.524C174.142 573.156 173.698 574.5 172.81 575.556C171.922 576.588 170.746 577.224 169.282 577.464V577.644C172.834 578.7 174.61 580.788 174.61 583.908C174.61 586.092 173.878 587.868 172.414 589.236C170.95 590.58 168.886 591.252 166.222 591.252C163.39 591.252 161.134 590.556 159.454 589.164C157.774 587.748 156.838 585.624 156.646 582.792H161.614C161.734 584.088 162.154 585.12 162.874 585.888C163.618 586.632 164.662 587.004 166.006 587.004C167.158 587.004 168.058 586.692 168.706 586.068C169.354 585.42 169.678 584.58 169.678 583.548C169.678 582.324 169.21 581.388 168.274 580.74C167.338 580.092 165.958 579.768 164.134 579.768H163.09V575.628H164.134C167.494 575.676 169.174 574.512 169.174 572.136C169.174 571.104 168.874 570.3 168.274 569.724C167.674 569.124 166.858 568.824 165.826 568.824C164.746 568.824 163.858 569.172 163.162 569.868C162.466 570.54 162.07 571.488 161.974 572.712H157.006C157.15 570.12 157.99 568.128 159.526 566.736C161.062 565.32 163.198 564.612 165.934 564.612Z" fill="white"/>
<path d="M1185.5 369.35C1183.07 369.35 1180.87 368.933 1178.9 368.1C1176.97 367.267 1175.43 366.067 1174.3 364.5C1173.17 362.933 1172.58 361.083 1172.55 358.95H1180.05C1180.15 360.383 1180.65 361.517 1181.55 362.35C1182.48 363.183 1183.75 363.6 1185.35 363.6C1186.98 363.6 1188.27 363.217 1189.2 362.45C1190.13 361.65 1190.6 360.617 1190.6 359.35C1190.6 358.317 1190.28 357.467 1189.65 356.8C1189.02 356.133 1188.22 355.617 1187.25 355.25C1186.32 354.85 1185.02 354.417 1183.35 353.95C1181.08 353.283 1179.23 352.633 1177.8 352C1176.4 351.333 1175.18 350.35 1174.15 349.05C1173.15 347.717 1172.65 345.95 1172.65 343.75C1172.65 341.683 1173.17 339.883 1174.2 338.35C1175.23 336.817 1176.68 335.65 1178.55 334.85C1180.42 334.017 1182.55 333.6 1184.95 333.6C1188.55 333.6 1191.47 334.483 1193.7 336.25C1195.97 337.983 1197.22 340.417 1197.45 343.55H1189.75C1189.68 342.35 1189.17 341.367 1188.2 340.6C1187.27 339.8 1186.02 339.4 1184.45 339.4C1183.08 339.4 1181.98 339.75 1181.15 340.45C1180.35 341.15 1179.95 342.167 1179.95 343.5C1179.95 344.433 1180.25 345.217 1180.85 345.85C1181.48 346.45 1182.25 346.95 1183.15 347.35C1184.08 347.717 1185.38 348.15 1187.05 348.65C1189.32 349.317 1191.17 349.983 1192.6 350.65C1194.03 351.317 1195.27 352.317 1196.3 353.65C1197.33 354.983 1197.85 356.733 1197.85 358.9C1197.85 360.767 1197.37 362.5 1196.4 364.1C1195.43 365.7 1194.02 366.983 1192.15 367.95C1190.28 368.883 1188.07 369.35 1185.5 369.35ZM1229.67 354.55C1229.67 355.55 1229.6 356.45 1229.47 357.25H1209.22C1209.39 359.25 1210.09 360.817 1211.32 361.95C1212.55 363.083 1214.07 363.65 1215.87 363.65C1218.47 363.65 1220.32 362.533 1221.42 360.3H1228.97C1228.17 362.967 1226.64 365.167 1224.37 366.9C1222.1 368.6 1219.32 369.45 1216.02 369.45C1213.35 369.45 1210.95 368.867 1208.82 367.7C1206.72 366.5 1205.07 364.817 1203.87 362.65C1202.7 360.483 1202.12 357.983 1202.12 355.15C1202.12 352.283 1202.7 349.767 1203.87 347.6C1205.04 345.433 1206.67 343.767 1208.77 342.6C1210.87 341.433 1213.29 340.85 1216.02 340.85C1218.65 340.85 1221 341.417 1223.07 342.55C1225.17 343.683 1226.79 345.3 1227.92 347.4C1229.09 349.467 1229.67 351.85 1229.67 354.55ZM1222.42 352.55C1222.39 350.75 1221.74 349.317 1220.47 348.25C1219.2 347.15 1217.65 346.6 1215.82 346.6C1214.09 346.6 1212.62 347.133 1211.42 348.2C1210.25 349.233 1209.54 350.683 1209.27 352.55H1222.42ZM1232.98 355.15C1232.98 352.283 1233.56 349.783 1234.73 347.65C1235.89 345.483 1237.51 343.817 1239.58 342.65C1241.64 341.45 1244.01 340.85 1246.68 340.85C1250.11 340.85 1252.94 341.717 1255.18 343.45C1257.44 345.15 1258.96 347.55 1259.73 350.65H1252.18C1251.78 349.45 1251.09 348.517 1250.13 347.85C1249.19 347.15 1248.03 346.8 1246.63 346.8C1244.63 346.8 1243.04 347.533 1241.88 349C1240.71 350.433 1240.13 352.483 1240.13 355.15C1240.13 357.783 1240.71 359.833 1241.88 361.3C1243.04 362.733 1244.63 363.45 1246.63 363.45C1249.46 363.45 1251.31 362.183 1252.18 359.65H1259.73C1258.96 362.65 1257.44 365.033 1255.18 366.8C1252.91 368.567 1250.08 369.45 1246.68 369.45C1244.01 369.45 1241.64 368.867 1239.58 367.7C1237.51 366.5 1235.89 364.833 1234.73 362.7C1233.56 360.533 1232.98 358.017 1232.98 355.15ZM1291.01 341.3V369H1283.96V365.5C1283.06 366.7 1281.87 367.65 1280.41 368.35C1278.97 369.017 1277.41 369.35 1275.71 369.35C1273.54 369.35 1271.62 368.9 1269.96 368C1268.29 367.067 1266.97 365.717 1266.01 363.95C1265.07 362.15 1264.61 360.017 1264.61 357.55V341.3H1271.61V356.55C1271.61 358.75 1272.16 360.45 1273.26 361.65C1274.36 362.817 1275.86 363.4 1277.76 363.4C1279.69 363.4 1281.21 362.817 1282.31 361.65C1283.41 360.45 1283.96 358.75 1283.96 356.55V341.3H1291.01ZM1304.91 345.6C1305.81 344.133 1306.98 342.983 1308.41 342.15C1309.88 341.317 1311.55 340.9 1313.41 340.9V348.25H1311.56C1309.36 348.25 1307.7 348.767 1306.56 349.8C1305.46 350.833 1304.91 352.633 1304.91 355.2V369H1297.91V341.3H1304.91V345.6ZM1321.68 338C1320.44 338 1319.41 337.617 1318.58 336.85C1317.78 336.05 1317.38 335.067 1317.38 333.9C1317.38 332.733 1317.78 331.767 1318.58 331C1319.41 330.2 1320.44 329.8 1321.68 329.8C1322.91 329.8 1323.93 330.2 1324.73 331C1325.56 331.767 1325.98 332.733 1325.98 333.9C1325.98 335.067 1325.56 336.05 1324.73 336.85C1323.93 337.617 1322.91 338 1321.68 338ZM1325.13 341.3V369H1318.13V341.3H1325.13ZM1340.19 347.05V360.45C1340.19 361.383 1340.41 362.067 1340.84 362.5C1341.31 362.9 1342.08 363.1 1343.14 363.1H1346.39V369H1341.99C1336.09 369 1333.14 366.133 1333.14 360.4V347.05H1329.84V341.3H1333.14V334.45H1340.19V341.3H1346.39V347.05H1340.19ZM1377.93 341.3L1360.78 382.1H1353.33L1359.33 368.3L1348.23 341.3H1356.08L1363.23 360.65L1370.48 341.3H1377.93Z" fill="#121212"/>
<circle cx="1075" cy="351" r="55" fill="#01AAE4"/>
<path d="M1054.62 351.076C1054.62 359.692 1057.86 364 1064.34 364C1067.78 364 1070.25 362.848 1071.76 360.544C1073.27 358.24 1074.03 355.084 1074.03 351.076C1074.03 347.092 1073.27 343.948 1071.76 341.644C1070.25 339.34 1067.78 338.188 1064.34 338.188C1057.86 338.188 1054.62 342.484 1054.62 351.076ZM1069.02 351.076C1069.02 353.692 1068.7 355.708 1068.05 357.124C1067.43 358.516 1066.19 359.212 1064.34 359.212C1062.47 359.212 1061.21 358.516 1060.56 357.124C1059.94 355.708 1059.63 353.692 1059.63 351.076C1059.63 348.484 1059.94 346.492 1060.56 345.1C1061.21 343.684 1062.47 342.976 1064.34 342.976C1066.19 342.976 1067.43 343.684 1068.05 345.1C1068.7 346.492 1069.02 348.484 1069.02 351.076ZM1077.01 360.004C1085.15 354.364 1089.21 349.684 1089.21 345.964C1089.21 344.836 1088.94 343.948 1088.39 343.3C1087.86 342.652 1087.02 342.328 1085.87 342.328C1083.49 342.328 1082.23 343.948 1082.09 347.188H1077.15C1077.3 344.188 1078.21 341.92 1079.89 340.384C1081.57 338.824 1083.69 338.044 1086.26 338.044C1088.88 338.044 1090.88 338.728 1092.27 340.096C1093.69 341.44 1094.4 343.24 1094.4 345.496C1094.4 347.272 1093.87 349.06 1092.81 350.86C1091.78 352.636 1090.46 354.28 1088.85 355.792C1087.25 357.28 1085.55 358.564 1083.78 359.644H1094.9V363.784H1077.01V360.004Z" fill="white"/>
<path d="M300.1 334.1L290.35 369H282.1L275.55 344.15L268.7 369L260.5 369.05L251.1 334.1H258.6L264.75 361.2L271.85 334.1H279.65L286.35 361.05L292.55 334.1H300.1ZM316.971 369.45C314.304 369.45 311.904 368.867 309.771 367.7C307.637 366.5 305.954 364.817 304.721 362.65C303.521 360.483 302.921 357.983 302.921 355.15C302.921 352.317 303.537 349.817 304.771 347.65C306.037 345.483 307.754 343.817 309.921 342.65C312.087 341.45 314.504 340.85 317.171 340.85C319.837 340.85 322.254 341.45 324.421 342.65C326.587 343.817 328.287 345.483 329.521 347.65C330.787 349.817 331.421 352.317 331.421 355.15C331.421 357.983 330.771 360.483 329.471 362.65C328.204 364.817 326.471 366.5 324.271 367.7C322.104 368.867 319.671 369.45 316.971 369.45ZM316.971 363.35C318.237 363.35 319.421 363.05 320.521 362.45C321.654 361.817 322.554 360.883 323.221 359.65C323.887 358.417 324.221 356.917 324.221 355.15C324.221 352.517 323.521 350.5 322.121 349.1C320.754 347.667 319.071 346.95 317.071 346.95C315.071 346.95 313.387 347.667 312.021 349.1C310.687 350.5 310.021 352.517 310.021 355.15C310.021 357.783 310.671 359.817 311.971 361.25C313.304 362.65 314.971 363.35 316.971 363.35ZM343.555 345.6C344.455 344.133 345.622 342.983 347.055 342.15C348.522 341.317 350.189 340.9 352.055 340.9V348.25H350.205C348.005 348.25 346.339 348.767 345.205 349.8C344.105 350.833 343.555 352.633 343.555 355.2V369H336.555V341.3H343.555V345.6ZM373.17 369L363.77 357.2V369H356.77V332H363.77V353.05L373.07 341.3H382.17L369.97 355.2L382.27 369H373.17ZM398.67 347.05H393.82V369H386.72V347.05H383.57V341.3H386.72V339.9C386.72 336.5 387.686 334 389.62 332.4C391.553 330.8 394.47 330.05 398.37 330.15V336.05C396.67 336.017 395.486 336.3 394.82 336.9C394.153 337.5 393.82 338.583 393.82 340.15V341.3H398.67V347.05ZM410.206 332V369H403.206V332H410.206ZM429.422 369.45C426.755 369.45 424.355 368.867 422.222 367.7C420.089 366.5 418.405 364.817 417.172 362.65C415.972 360.483 415.372 357.983 415.372 355.15C415.372 352.317 415.989 349.817 417.222 347.65C418.489 345.483 420.205 343.817 422.372 342.65C424.539 341.45 426.955 340.85 429.622 340.85C432.289 340.85 434.705 341.45 436.872 342.65C439.039 343.817 440.739 345.483 441.972 347.65C443.239 349.817 443.872 352.317 443.872 355.15C443.872 357.983 443.222 360.483 441.922 362.65C440.655 364.817 438.922 366.5 436.722 367.7C434.555 368.867 432.122 369.45 429.422 369.45ZM429.422 363.35C430.689 363.35 431.872 363.05 432.972 362.45C434.105 361.817 435.005 360.883 435.672 359.65C436.339 358.417 436.672 356.917 436.672 355.15C436.672 352.517 435.972 350.5 434.572 349.1C433.205 347.667 431.522 346.95 429.522 346.95C427.522 346.95 425.839 347.667 424.472 349.1C423.139 350.5 422.472 352.517 422.472 355.15C422.472 357.783 423.122 359.817 424.422 361.25C425.755 362.65 427.422 363.35 429.422 363.35ZM487.407 341.3L479.307 369H471.757L466.707 349.65L461.657 369H454.057L445.907 341.3H453.007L457.907 362.4L463.207 341.3H470.607L475.807 362.35L480.707 341.3H487.407Z" fill="#121212"/>
<circle cx="155" cy="351" r="55" fill="#01AAE4"/>
<path d="M138.878 351.076C138.878 359.692 142.118 364 148.598 364C152.03 364 154.502 362.848 156.014 360.544C157.526 358.24 158.282 355.084 158.282 351.076C158.282 347.092 157.526 343.948 156.014 341.644C154.502 339.34 152.03 338.188 148.598 338.188C142.118 338.188 138.878 342.484 138.878 351.076ZM153.278 351.076C153.278 353.692 152.954 355.708 152.306 357.124C151.682 358.516 150.446 359.212 148.598 359.212C146.726 359.212 145.466 358.516 144.818 357.124C144.194 355.708 143.882 353.692 143.882 351.076C143.882 348.484 144.194 346.492 144.818 345.1C145.466 343.684 146.726 342.976 148.598 342.976C150.446 342.976 151.682 343.684 152.306 345.1C152.954 346.492 153.278 348.484 153.278 351.076ZM160.364 343.336V338.584H169.508V364H164.18V343.336H160.364Z" fill="white"/>
<path d="M108.76 137.21C107.38 137.21 106.16 136.97 105.1 136.49C104.06 136.01 103.24 135.34 102.64 134.48C102.04 133.62 101.72 132.66 101.68 131.6H103.9C104 132.62 104.45 133.52 105.25 134.3C106.05 135.06 107.22 135.44 108.76 135.44C110.18 135.44 111.3 135.08 112.12 134.36C112.96 133.62 113.38 132.69 113.38 131.57C113.38 130.67 113.15 129.95 112.69 129.41C112.23 128.85 111.66 128.44 110.98 128.18C110.3 127.9 109.36 127.6 108.16 127.28C106.76 126.9 105.65 126.53 104.83 126.17C104.01 125.81 103.31 125.25 102.73 124.49C102.15 123.73 101.86 122.7 101.86 121.4C101.86 120.32 102.14 119.36 102.7 118.52C103.26 117.66 104.05 116.99 105.07 116.51C106.09 116.03 107.26 115.79 108.58 115.79C110.52 115.79 112.08 116.27 113.26 117.23C114.46 118.17 115.15 119.39 115.33 120.89H113.05C112.91 120.03 112.44 119.27 111.64 118.61C110.84 117.93 109.76 117.59 108.4 117.59C107.14 117.59 106.09 117.93 105.25 118.61C104.41 119.27 103.99 120.18 103.99 121.34C103.99 122.22 104.22 122.93 104.68 123.47C105.14 124.01 105.71 124.42 106.39 124.7C107.09 124.98 108.03 125.28 109.21 125.6C110.57 125.98 111.67 126.36 112.51 126.74C113.35 127.1 114.06 127.66 114.64 128.42C115.22 129.18 115.51 130.2 115.51 131.48C115.51 132.46 115.25 133.39 114.73 134.27C114.21 135.15 113.44 135.86 112.42 136.4C111.4 136.94 110.18 137.21 108.76 137.21ZM133.758 120.62V137H131.658V134.12C131.178 135.14 130.438 135.92 129.438 136.46C128.438 137 127.318 137.27 126.078 137.27C124.118 137.27 122.518 136.67 121.278 135.47C120.038 134.25 119.418 132.49 119.418 130.19V120.62H121.488V129.95C121.488 131.73 121.928 133.09 122.808 134.03C123.708 134.97 124.928 135.44 126.468 135.44C128.048 135.44 129.308 134.94 130.248 133.94C131.188 132.94 131.658 131.47 131.658 129.53V120.62H133.758ZM158.052 120.32C159.972 120.32 161.532 120.93 162.732 122.15C163.952 123.35 164.562 125.1 164.562 127.4V137H162.492V127.64C162.492 125.86 162.062 124.5 161.202 123.56C160.342 122.62 159.172 122.15 157.692 122.15C156.152 122.15 154.922 122.66 154.002 123.68C153.082 124.7 152.622 126.18 152.622 128.12V137H150.552V127.64C150.552 125.86 150.122 124.5 149.262 123.56C148.402 122.62 147.222 122.15 145.722 122.15C144.182 122.15 142.952 122.66 142.032 123.68C141.112 124.7 140.652 126.18 140.652 128.12V137H138.552V120.62H140.652V123.44C141.172 122.42 141.912 121.65 142.872 121.13C143.832 120.59 144.902 120.32 146.082 120.32C147.502 120.32 148.742 120.66 149.802 121.34C150.882 122.02 151.662 123.02 152.142 124.34C152.582 123.04 153.332 122.05 154.392 121.37C155.472 120.67 156.692 120.32 158.052 120.32ZM188.726 120.32C190.646 120.32 192.206 120.93 193.406 122.15C194.626 123.35 195.236 125.1 195.236 127.4V137H193.166V127.64C193.166 125.86 192.736 124.5 191.876 123.56C191.016 122.62 189.846 122.15 188.366 122.15C186.826 122.15 185.596 122.66 184.676 123.68C183.756 124.7 183.296 126.18 183.296 128.12V137H181.226V127.64C181.226 125.86 180.796 124.5 179.936 123.56C179.076 122.62 177.896 122.15 176.396 122.15C174.856 122.15 173.626 122.66 172.706 123.68C171.786 124.7 171.326 126.18 171.326 128.12V137H169.226V120.62H171.326V123.44C171.846 122.42 172.586 121.65 173.546 121.13C174.506 120.59 175.576 120.32 176.756 120.32C178.176 120.32 179.416 120.66 180.476 121.34C181.556 122.02 182.336 123.02 182.816 124.34C183.256 123.04 184.006 122.05 185.066 121.37C186.146 120.67 187.366 120.32 188.726 120.32ZM198.94 128.78C198.94 127.1 199.27 125.63 199.93 124.37C200.61 123.09 201.54 122.11 202.72 121.43C203.92 120.73 205.27 120.38 206.77 120.38C208.33 120.38 209.67 120.74 210.79 121.46C211.93 122.18 212.75 123.1 213.25 124.22V120.62H215.35V137H213.25V133.37C212.73 134.49 211.9 135.42 210.76 136.16C209.64 136.88 208.3 137.24 206.74 137.24C205.26 137.24 203.92 136.89 202.72 136.19C201.54 135.49 200.61 134.5 199.93 133.22C199.27 131.94 198.94 130.46 198.94 128.78ZM213.25 128.81C213.25 127.49 212.98 126.33 212.44 125.33C211.9 124.33 211.16 123.56 210.22 123.02C209.3 122.48 208.28 122.21 207.16 122.21C206 122.21 204.96 122.47 204.04 122.99C203.12 123.51 202.39 124.27 201.85 125.27C201.33 126.25 201.07 127.42 201.07 128.78C201.07 130.12 201.33 131.3 201.85 132.32C202.39 133.32 203.12 134.09 204.04 134.63C204.96 135.15 206 135.41 207.16 135.41C208.28 135.41 209.3 135.14 210.22 134.6C211.16 134.06 211.9 133.29 212.44 132.29C212.98 131.29 213.25 130.13 213.25 128.81ZM222.244 123.53C222.704 122.51 223.404 121.72 224.344 121.16C225.304 120.6 226.474 120.32 227.854 120.32V122.51H227.284C225.764 122.51 224.544 122.92 223.624 123.74C222.704 124.56 222.244 125.93 222.244 127.85V137H220.144V120.62H222.244V123.53ZM244.513 120.62L234.793 144.71H232.603L235.783 136.91L229.063 120.62H231.373L236.953 134.6L242.353 120.62H244.513Z" fill="#121212"/>
</svg>
